<?xml version="1.0" encoding="UTF-8"?>
<svg width="16px" height="16px" viewBox="0 0 16 16" version="1.1" xmlns="http://www.w3.org/2000/svg" xmlns:xlink="http://www.w3.org/1999/xlink">
    <!-- Generator: Sketch 60.1 (88133) - https://sketch.com -->
    <title>管理</title>
    <desc>Created with Sketch.</desc>
    <g id="页面-1" stroke="none" stroke-width="1" fill-rule="evenodd">
        <g id="电子书-信息设置" transform="translate(-24.000000, -178.000000)" fill-rule="nonzero">
            <g id="编组-2备份" transform="translate(24.000000, 178.000000)">
                <g id="管理">
                    <g id="编组">
                        <rect id="矩形" fill="#000000" opacity="0" x="0" y="0" width="16" height="15.372549"></rect>
                        <path d="M2.015625,2.98743873 L2.015625,6.60539216 L5.78125,6.60539216 L5.78125,2.98743873 L2.015625,2.98743873 Z M1.546875,2.08670343 L6.25,2.08670343 C6.50889063,2.08670343 6.71875,2.28833303 6.71875,2.53707108 L6.71875,7.0557598 C6.71875,7.30449786 6.50889063,7.50612745 6.25,7.50612745 L1.546875,7.50612745 C1.28798437,7.50612745 1.078125,7.30449786 1.078125,7.0557598 L1.078125,2.53707108 C1.078125,2.28833303 1.28798437,2.08670343 1.546875,2.08670343 Z" id="形状" ></path>
                        <path d="M2.015625,9.84803922 L2.015625,13.4659926 L5.78125,13.4659926 L5.78125,9.84803922 L2.015625,9.84803922 Z M1.546875,8.94730392 L6.25,8.94730392 C6.50889063,8.94730392 6.71875,9.14893352 6.71875,9.39767157 L6.71875,13.9163603 C6.71875,14.1650983 6.50889063,14.3667279 6.25,14.3667279 L1.546875,14.3667279 C1.28798437,14.3667279 1.078125,14.1650983 1.078125,13.9163603 L1.078125,9.39767157 C1.078125,9.14893352 1.28798437,8.94730392 1.546875,8.94730392 Z M11.0396406,2.23985846 L8.3793125,4.79585999 L11.0396406,7.35186152 L13.6999687,4.79585999 L11.0396406,2.23985846 L11.0396406,2.23985846 Z M11.3710938,1.28447855 L14.6943437,4.47740502 C14.8773906,4.6532886 14.8773906,4.93843137 14.6943437,5.11431495 L11.3710938,8.30724142 C11.1880312,8.48310999 10.89125,8.48310999 10.7081875,8.30724142 L7.3849375,5.11431495 C7.20189062,4.93843137 7.20189062,4.6532886 7.3849375,4.47740502 L10.7081875,1.28447855 C10.89125,1.10860999 11.1880312,1.10860999 11.3710938,1.28447855 Z" id="形状"></path>
                        <path d="M9.171875,9.84803922 L9.171875,13.4659926 L12.90625,13.4659926 L12.90625,9.84803922 L9.171875,9.84803922 Z M8.703125,8.94730392 L13.375,8.94730392 C13.6338906,8.94730392 13.84375,9.14893352 13.84375,9.39767157 L13.84375,13.9163603 C13.84375,14.1650983 13.6338906,14.3667279 13.375,14.3667279 L8.703125,14.3667279 C8.44423438,14.3667279 8.234375,14.1650983 8.234375,13.9163603 L8.234375,9.39767157 C8.234375,9.14893352 8.44423438,8.94730392 8.703125,8.94730392 Z" id="形状"></path>
                    </g>
                </g>
            </g>
        </g>
    </g>
</svg>