<?xml version="1.0" encoding="UTF-8"?>
<svg width="16px" height="16px" viewBox="0 0 16 16" version="1.1" xmlns="http://www.w3.org/2000/svg" xmlns:xlink="http://www.w3.org/1999/xlink">
    <!-- Generator: Sketch 60.1 (88133) - https://sketch.com -->
    <title>目录</title>
    <desc>Created with Sketch.</desc>
    <g id="页面-1" stroke="none" stroke-width="1" fill-rule="evenodd">
        <g id="电子书-信息设置" transform="translate(-24.000000, -128.000000)" fill-rule="nonzero">
            <g id="编组-3" transform="translate(24.000000, 128.000000)">
                <g id="目录">
                    <rect id="矩形" opacity="0" x="0" y="0" width="16" height="16"></rect>
                    <path d="M13.8287131,3.46487729 L5.13175664,3.46487729 C4.73443376,3.46487729 4.4093514,3.13979494 4.4093514,2.74247205 C4.4093514,2.34514917 4.73443376,2.02006681 5.13175664,2.02006681 L13.8307198,2.02006681 C14.2280426,2.02006681 14.553125,2.34514917 14.553125,2.74247205 C14.5511183,3.13979494 14.226036,3.46487729 13.8287131,3.46487729 Z M13.8287131,8.64211486 L5.13175664,8.64211486 C4.73443376,8.64211486 4.4093514,8.3170325 4.4093514,7.91970962 C4.4093514,7.52238673 4.73443376,7.19730438 5.13175664,7.19730438 L13.8307198,7.19730438 C14.2280426,7.19730438 14.553125,7.52238673 14.553125,7.91970962 C14.5511183,8.3170325 14.226036,8.64211486 13.8287131,8.64211486 Z M13.8287131,13.8193524 L5.13175664,13.8193524 C4.73443376,13.8193524 4.4093514,13.4942701 4.4093514,13.0969472 C4.4093514,12.6996243 4.73443376,12.3745419 5.13175664,12.3745419 L13.8307198,12.3745419 C14.2280426,12.3745419 14.553125,12.6996243 14.553125,13.0969472 C14.5511183,13.4942701 14.226036,13.8193524 13.8287131,13.8193524 Z M1,2.76053218 C1,3.18056251 1.34050186,3.52106437 1.76053218,3.52106437 C2.18056251,3.52106437 2.52106437,3.18056251 2.52106437,2.76053218 C2.52106437,2.34050186 2.18056251,2 1.76053218,2 C1.34050186,2 1,2.34050186 1,2.76053218 L1,2.76053218 Z M1,7.93776975 C1,8.35780007 1.34050186,8.69830193 1.76053218,8.69830193 C2.18056251,8.69830193 2.52106437,8.35780007 2.52106437,7.93776975 C2.52106437,7.51773942 2.18056251,7.17723756 1.76053218,7.17723756 C1.34050186,7.17723756 1,7.51773942 1,7.93776975 L1,7.93776975 Z M1,13.1150073 C1,13.5350376 1.34050186,13.8755395 1.76053218,13.8755395 C2.18056251,13.8755395 2.52106437,13.5350376 2.52106437,13.1150073 C2.52106437,12.694977 2.18056251,12.3544751 1.76053218,12.3544751 C1.34050186,12.3544751 1,12.694977 1,13.1150073 L1,13.1150073 Z" id="形状"></path>
                </g>
            </g>
        </g>
    </g>
</svg>