<?xml version="1.0" encoding="UTF-8"?>
<svg width="19px" height="22px" viewBox="0 0 19 22" version="1.1" xmlns="http://www.w3.org/2000/svg" xmlns:xlink="http://www.w3.org/1999/xlink">
    <!-- Generator: Sketch 60.1 (88133) - https://sketch.com -->
    <title>形状结合</title>
    <desc>Created with Sketch.</desc>
    <g id="页面-1" stroke="none" stroke-width="1" fill="none" fill-rule="evenodd">
        <g id="登陆" transform="translate(-1033.000000, -444.000000)" fill="#03C17B" fill-rule="nonzero">
            <g id="编组-3" transform="translate(1033.000000, 444.000000)">
                <path d="M14.4736842,-7.81597009e-14 C15.4578948,-7.81597009e-14 16.2105263,0.752631571 16.2105263,1.73684211 L16.2105263,1.73684211 L16.2105263,20.2631579 C16.2105263,21.2473684 15.4578948,22 14.4736842,22 L14.4736842,22 L1.73684211,22 C0.752631571,22 7.71827047e-13,21.2473684 7.71827047e-13,20.2631579 L7.71827047e-13,20.2631579 L7.71827047e-13,1.73684211 C7.71827047e-13,0.752631571 0.752631571,-7.81597009e-14 1.73684211,-7.81597009e-14 L1.73684211,-7.81597009e-14 Z M15.0526316,17.3684211 L1.15789475,17.3684211 L1.15789475,20.2631579 C1.15789475,20.6105263 1.38947369,20.8421053 1.73684211,20.8421053 L1.73684211,20.8421053 L14.4736842,20.8421053 C14.8210527,20.8421053 15.0526316,20.6105263 15.0526316,20.2631579 L15.0526316,20.2631579 L15.0526316,17.3684211 Z M8.68421053,18.5263158 C8.97368423,18.5263158 9.26315792,18.8157895 9.26315792,19.1052632 C9.26315792,19.3947368 8.97368423,19.6842105 8.68421053,19.6842105 L8.68421053,19.6842105 L7.52631581,19.6842105 C7.23684212,19.6842105 6.94736843,19.3947369 6.94736843,19.1052632 C6.94736843,18.8157895 7.23684212,18.5263158 7.52631581,18.5263158 L7.52631581,18.5263158 Z M14.4736842,1.15789472 L1.73684211,1.15789472 C1.38947369,1.15789472 1.15789475,1.38947369 1.15789475,1.73684211 L1.15789475,1.73684211 L1.15789475,16.2105263 L15.0526316,16.2105263 L15.0526316,1.73684211 C15.0526316,1.38947366 14.8210527,1.15789472 14.4736842,1.15789472 L14.4736842,1.15789472 Z M11,2.89473683 C11.2894737,2.89473683 11.5789474,3.18421052 11.5789474,3.47368421 C11.5789474,3.82105263 11.2894737,4.05263157 11,4.05263157 L11,4.05263157 L5.21052632,4.05263157 C4.92105265,4.05263157 4.63157896,3.76315791 4.63157896,3.47368421 C4.63157896,3.18421052 4.92105263,2.89473683 5.21052632,2.89473683 L5.21052632,2.89473683 Z" id="形状结合"></path>
            </g>
        </g>
    </g>
</svg>