<?xml version="1.0" encoding="UTF-8"?>
<svg width="19px" height="22px" viewBox="0 0 19 22" version="1.1" xmlns="http://www.w3.org/2000/svg" xmlns:xlink="http://www.w3.org/1999/xlink">
    <!-- Generator: Sketch 60.1 (88133) - https://sketch.com -->
    <title>形状</title>
    <desc>Created with Sketch.</desc>
    <g id="页面-1" stroke="none" stroke-width="1" fill="none" fill-rule="evenodd">
        <g id="登陆" transform="translate(-1033.000000, -527.000000)" fill="#03C17B" fill-rule="nonzero">
            <g id="编组-4" transform="translate(1033.000000, 527.000000)">
                <path d="M15,22 L3,22 C1.31999999,22 0,20.5333333 0,18.6666667 L0,10.6666667 C0,8.79999999 1.32,7.33333334 3,7.33333334 L15,7.33333334 C16.68,7.33333334 18,8.80000001 18,10.6666667 L18,18.6666667 C18,20.5333333 16.68,22 15,22 Z M2.99999999,8.66666667 C1.97999999,8.66666667 1.2,9.53333333 1.2,10.6666667 L1.2,18.6666667 C1.2,19.8 1.97999999,20.6666667 2.99999999,20.6666667 L15,20.6666667 C16.02,20.6666667 16.8,19.8 16.8,18.6666667 L16.8,10.6666667 C16.8,9.53333333 16.02,8.66666667 15,8.66666667 L2.99999999,8.66666667 Z M9,16.3333333 C8.82000001,16.3333333 8.7,16.2 8.7,16 L8.7,12.6666667 C8.7,12.4666667 8.82000001,12.3333333 9,12.3333333 C9.17999999,12.3333333 9.3,12.4666667 9.3,12.6666667 L9.3,16 C9.3,16.2 9.17999999,16.3333333 9,16.3333333 Z M9,16.6666667 C8.64,16.6666667 8.4,16.4 8.4,16 L8.4,12.6666667 C8.4,12.2666667 8.64,12 9,12 C9.36,12 9.6,12.2666667 9.6,12.6666667 L9.6,16 C9.6,16.4 9.36,16.6666667 9,16.6666667 L9,16.6666667 Z M9.04904297,16 L9.04904297,16.3333333 L9.04904297,16 Z M13.8,8.66666667 L4.19999999,8.66666667 L4.19999999,7.33333334 C4.19999999,4.40000002 6.35999999,2 9,2 C11.64,2 13.8,4.4 13.8,7.33333334 L13.8,8.66666667 Z M5.39999999,7.33333333 L12.6,7.33333333 C12.6,5.13333334 10.98,3.33333333 9,3.33333333 C7.02000001,3.33333333 5.39999999,5.13333334 5.39999999,7.33333333 Z" id="形状"></path>
            </g>
        </g>
    </g>
</svg>